<mxfile host="app.diagrams.net" modified="2022-03-08T09:17:50.483Z" agent="5.0 (Macintosh; Intel Mac OS X 10_15_7) AppleWebKit/537.36 (KHTML, like Gecko) Chrome/98.0.4758.102 Safari/537.36 Edg/98.0.1108.62" etag="_aRFScIa8DIYtHb5cUQG" version="16.6.7" type="github">
  <diagram id="JbSLdMSTHEBq_baovkw8" name="Page-1">
    <mxGraphModel dx="1250" dy="719" grid="0" gridSize="10" guides="1" tooltips="1" connect="1" arrows="1" fold="1" page="1" pageScale="1" pageWidth="400" pageHeight="320" math="0" shadow="0">
      <root>
        <mxCell id="0" />
        <mxCell id="1" parent="0" />
        <mxCell id="uGiOJ0rx40UliMoJo7oa-1" value="" style="group" vertex="1" connectable="0" parent="1">
          <mxGeometry x="3" width="388" height="305.5" as="geometry" />
        </mxCell>
        <mxCell id="uGiOJ0rx40UliMoJo7oa-2" value="" style="shape=trapezoid;perimeter=trapezoidPerimeter;whiteSpace=wrap;html=1;strokeColor=#d79b00;fillColor=#ffe6cc;size=0.14432989690721648;" vertex="1" parent="uGiOJ0rx40UliMoJo7oa-1">
          <mxGeometry y="222.5" width="388" height="83" as="geometry" />
        </mxCell>
        <mxCell id="uGiOJ0rx40UliMoJo7oa-3" value="" style="shape=trapezoid;perimeter=trapezoidPerimeter;whiteSpace=wrap;html=1;strokeColor=#000000;fillColor=#d5e8d4;size=0.145985401459854;" vertex="1" parent="uGiOJ0rx40UliMoJo7oa-1">
          <mxGeometry x="57" y="161.5" width="274" height="56" as="geometry" />
        </mxCell>
        <mxCell id="uGiOJ0rx40UliMoJo7oa-4" value="" style="triangle;whiteSpace=wrap;html=1;rotation=-90;fillColor=#f5f5f5;strokeColor=#000000;fontColor=#333333;" vertex="1" parent="uGiOJ0rx40UliMoJo7oa-1">
          <mxGeometry x="155.5" width="77" height="101" as="geometry" />
        </mxCell>
        <mxCell id="uGiOJ0rx40UliMoJo7oa-5" value="" style="shape=trapezoid;perimeter=trapezoidPerimeter;whiteSpace=wrap;html=1;fillColor=#dae8fc;strokeColor=#000000;size=0.225;" vertex="1" parent="uGiOJ0rx40UliMoJo7oa-1">
          <mxGeometry x="100" y="94.5" width="188" height="62" as="geometry" />
        </mxCell>
        <mxCell id="uGiOJ0rx40UliMoJo7oa-6" value="&lt;font style=&quot;font-size: 15px&quot;&gt;智慧&lt;/font&gt;" style="text;html=1;strokeColor=none;fillColor=none;align=center;verticalAlign=middle;whiteSpace=wrap;rounded=0;" vertex="1" parent="uGiOJ0rx40UliMoJo7oa-1">
          <mxGeometry x="172" y="40.5" width="40" height="20" as="geometry" />
        </mxCell>
        <mxCell id="uGiOJ0rx40UliMoJo7oa-7" value="&lt;font style=&quot;font-size: 15px&quot;&gt;知识&lt;/font&gt;" style="text;html=1;strokeColor=none;fillColor=none;align=center;verticalAlign=middle;whiteSpace=wrap;rounded=0;" vertex="1" parent="uGiOJ0rx40UliMoJo7oa-1">
          <mxGeometry x="174" y="101" width="40" height="20" as="geometry" />
        </mxCell>
        <mxCell id="uGiOJ0rx40UliMoJo7oa-8" value="&lt;font style=&quot;font-size: 15px&quot;&gt;信息&lt;/font&gt;" style="text;html=1;strokeColor=none;fillColor=none;align=center;verticalAlign=middle;whiteSpace=wrap;rounded=0;" vertex="1" parent="uGiOJ0rx40UliMoJo7oa-1">
          <mxGeometry x="174" y="169.5" width="40" height="20" as="geometry" />
        </mxCell>
        <mxCell id="uGiOJ0rx40UliMoJo7oa-9" value="&lt;font style=&quot;font-size: 15px&quot;&gt;数据&lt;/font&gt;" style="text;html=1;strokeColor=none;fillColor=none;align=center;verticalAlign=middle;whiteSpace=wrap;rounded=0;" vertex="1" parent="uGiOJ0rx40UliMoJo7oa-1">
          <mxGeometry x="169" y="240.5" width="40" height="20" as="geometry" />
        </mxCell>
        <mxCell id="uGiOJ0rx40UliMoJo7oa-10" value="&lt;font style=&quot;font-size: 11px&quot;&gt;对知识的适当应用&lt;/font&gt;" style="text;html=1;strokeColor=none;fillColor=none;align=center;verticalAlign=middle;whiteSpace=wrap;rounded=0;" vertex="1" parent="uGiOJ0rx40UliMoJo7oa-1">
          <mxGeometry x="169" y="64.5" width="50" height="20" as="geometry" />
        </mxCell>
        <mxCell id="uGiOJ0rx40UliMoJo7oa-11" value="&lt;font style=&quot;font-size: 11px&quot;&gt;信息的有序合成&lt;/font&gt;" style="text;html=1;strokeColor=none;fillColor=none;align=center;verticalAlign=middle;whiteSpace=wrap;rounded=0;" vertex="1" parent="uGiOJ0rx40UliMoJo7oa-1">
          <mxGeometry x="136.5" y="125.5" width="110" height="20" as="geometry" />
        </mxCell>
        <mxCell id="uGiOJ0rx40UliMoJo7oa-12" value="&lt;font style=&quot;font-size: 11px&quot;&gt;能够理解我们赋予事实的意义&lt;/font&gt;" style="text;html=1;strokeColor=none;fillColor=none;align=center;verticalAlign=middle;whiteSpace=wrap;rounded=0;" vertex="1" parent="uGiOJ0rx40UliMoJo7oa-1">
          <mxGeometry x="119" y="189.5" width="169" height="20" as="geometry" />
        </mxCell>
        <mxCell id="uGiOJ0rx40UliMoJo7oa-13" value="&lt;font style=&quot;font-size: 11px&quot;&gt;没有意义的事实&lt;/font&gt;" style="text;html=1;strokeColor=none;fillColor=none;align=center;verticalAlign=middle;whiteSpace=wrap;rounded=0;" vertex="1" parent="uGiOJ0rx40UliMoJo7oa-1">
          <mxGeometry x="109.5" y="277.5" width="169" height="20" as="geometry" />
        </mxCell>
      </root>
    </mxGraphModel>
  </diagram>
</mxfile>
